<svg xmlns="http://www.w3.org/2000/svg" xmlns:xlink="http://www.w3.org/1999/xlink" viewBox="0,0,256,256" width="48px" height="48px" fill-rule="nonzero"><g fill="none" fill-rule="nonzero" stroke="none" stroke-width="none" stroke-linecap="none" stroke-linejoin="none" stroke-miterlimit="10" stroke-dasharray="" stroke-dashoffset="0" font-family="none" font-weight="none" font-size="none" text-anchor="none" style="mix-blend-mode: normal"><g transform="scale(5.33333,5.33333)"><path d="M28.576,38.503c-0.288,-0.29 -0.768,-0.29 -1.152,0l-8.352,6.079c-1.248,0.965 -3.072,0 -3.072,-1.544v-30.108c0,-1.062 0.868,-1.93 1.93,-1.93h20.14c1.062,0 1.93,0.868 1.93,1.93v30.012c0,1.544 -1.728,2.509 -3.072,1.544z" fill="#9a73b5" stroke="none" stroke-width="1" stroke-linecap="butt" stroke-linejoin="miter"></path><path d="M11.5,20.711v-12.311c0,-1.1 0.9,-2 2,-2h21c1.1,0 2,0.9 2,2v5.834" fill="none" stroke="#18193f" stroke-width="3" stroke-linecap="round" stroke-linejoin="round"></path><path d="M36.5,37.468v2.032c0,1.6 -1.8,2.6 -3.2,1.6l-8.7,-6.2c-0.3,-0.3 -0.8,-0.3 -1.2,0l-8.7,6.3c-1.3,1 -3.2,0 -3.2,-1.6v-12.6" fill="none" stroke="#18193f" stroke-width="3" stroke-linecap="round" stroke-linejoin="round"></path><path d="M35.5,14.511c2.9,-0.2 5.8,1 7.8,3.4c3.4,4 2.8,10.1 -1.2,13.3" fill="none" stroke="#18193f" stroke-width="3" stroke-linecap="round" stroke-linejoin="round"></path><path d="M35.3,33.511c-2.5,-0.1 -4.8,-1.4 -6.5,-3.4c-3.4,-4 -2.8,-10.1 1.2,-13.4" fill="none" stroke="#18193f" stroke-width="3" stroke-linecap="round" stroke-linejoin="round"></path><path d="M36.1,27.311v-6.6" fill="none" stroke="#18193f" stroke-width="3" stroke-linecap="round" stroke-linejoin="round"></path><path d="M32.8,24.011h6.6" fill="none" stroke="#18193f" stroke-width="3" stroke-linecap="round" stroke-linejoin="round"></path></g></g></svg>